<?xml version="1.0" encoding="UTF-8" standalone="no"?>
<!-- Created with Inkscape (http://www.inkscape.org/) -->

<svg
   width="512"
   height="512"
   viewBox="0 0 135.46667 135.46667"
   version="1.1"
   id="svg1"
   xml:space="preserve"
   inkscape:version="1.4.2 (f4327f4, 2025-05-13)"
   sodipodi:docname="logo.svg"
   xmlns:inkscape="http://www.inkscape.org/namespaces/inkscape"
   xmlns:sodipodi="http://sodipodi.sourceforge.net/DTD/sodipodi-0.dtd"
   xmlns="http://www.w3.org/2000/svg"
   xmlns:svg="http://www.w3.org/2000/svg"><sodipodi:namedview
     id="namedview1"
     pagecolor="#ffffff"
     bordercolor="#666666"
     borderopacity="1.0"
     inkscape:showpageshadow="2"
     inkscape:pageopacity="0.0"
     inkscape:pagecheckerboard="0"
     inkscape:deskcolor="#d1d1d1"
     inkscape:document-units="px"
     inkscape:zoom="0.53168949"
     inkscape:cx="137.29818"
     inkscape:cy="303.74872"
     inkscape:window-width="1920"
     inkscape:window-height="991"
     inkscape:window-x="-9"
     inkscape:window-y="-9"
     inkscape:window-maximized="1"
     inkscape:current-layer="layer1" /><defs
     id="defs1"><rect
       x="290.43201"
       y="826.27905"
       width="349.97055"
       height="220.72832"
       id="rect2" /><rect
       x="361.58783"
       y="850.96576"
       width="377.56161"
       height="187.32864"
       id="rect1" /></defs><g
     inkscape:label="Calque 1"
     inkscape:groupmode="layer"
     id="layer1"><path
       id="rect4"
       style="fill:#ffffff;stroke-width:1.049"
       d="M 0,0 H 135.46667 V 135.46667 H 0 Z"
       inkscape:export-filename="logo.png"
       inkscape:export-xdpi="96"
       inkscape:export-ydpi="96" /><g
       id="g3"
       transform="translate(-56.091671,-34.395836)"
       inkscape:export-filename="logo48.png"
       inkscape:export-xdpi="9.000001"
       inkscape:export-ydpi="9.000001"><path
         style="fill:#000000;fill-opacity:1"
         d="M 56.091671,102.12917 V 34.395836 H 123.825 191.55833 V 102.12917 169.8625 H 123.825 56.091671 Z m 116.744439,39.07417 c 0.89588,-0.43993 1.89784,-1.20868 2.44391,-1.87508 1.84613,-2.25296 1.72623,0.56922 1.72623,-40.63089 V 61.465439 l -0.8599,-1.694191 c -0.94684,-1.865498 -2.44928,-3.206922 -4.10772,-3.667513 -0.66203,-0.183861 -16.64224,-0.274183 -48.68515,-0.275175 -39.874734,-0.0012 -47.842464,0.0582 -48.57028,0.362301 -1.371105,0.572885 -2.845238,2.027499 -3.517329,3.470756 l -0.616948,1.324842 -0.0026,37.727009 -0.0026,37.727012 0.801762,1.60447 c 0.983585,1.96832 2.610201,3.30279 4.622196,3.79203 0.436562,0.10615 22.046405,0.17477 48.021869,0.15249 l 47.22813,-0.0405 z m -96.698078,-4.39202 -0.86407,-0.77201 -0.06941,-30.71341 -0.06941,-30.7134 h 48.686598 48.68659 v 30.03871 c 0,33.07256 0.0874,31.34441 -1.63772,32.39617 -0.86966,0.53022 -1.20295,0.53398 -47.37216,0.53496 l -46.496345,9.9e-4 z"
         id="path1"
         sodipodi:nodetypes="cccccccccssscsscsscccssscsccccccssscc" /><path
         d="m 87.781683,114.83683 -8.588056,-9.51629 8.588056,-9.499512 1.987735,2.647138 -6.319989,6.818884 6.319989,6.90265 z M 101.02054,95.988566 V 114.45148 H 97.809567 V 95.988566 h -4.561603 v -3.434571 h 12.334186 v 3.434571 z m 18.80707,10.404254 c 0,1.39616 -0.1444,2.62479 -0.43321,3.68589 -0.28033,1.0499 -0.68808,1.9267 -1.22323,2.63037 -0.52668,0.70366 -1.17226,1.23422 -1.93679,1.59162 -0.76451,0.35743 -1.62247,0.53613 -2.57386,0.53613 -1.07032,0 -1.98773,-0.1787 -2.75225,-0.53613 -0.76453,-0.3574 -1.38463,-0.8712 -1.86032,-1.54136 -0.47569,-0.67016 -0.81972,-1.48554 -1.0321,-2.44611 -0.21237,-0.96055 -0.31854,-2.03839 -0.31854,-3.23351 V 92.553995 h 3.1345 v 14.274415 c 0,0.73718 0.0468,1.3906 0.14017,1.96021 0.10194,0.56966 0.27182,1.05552 0.50967,1.45762 0.24635,0.39091 0.55216,0.6869 0.91742,0.88795 0.36527,0.20104 0.82398,0.30156 1.37613,0.30156 0.51817,0 0.95564,-0.0836 1.31243,-0.2513 0.35676,-0.1787 0.65406,-0.45794 0.89193,-0.83769 0.23785,-0.39092 0.41623,-0.88797 0.53515,-1.49111 0.11888,-0.60315 0.1784,-1.33474 0.1784,-2.19478 V 92.553995 h 3.1345 z m 3.01985,-10.471266 v -3.367559 h 10.52482 v 3.367559 h -3.66968 v 15.128876 h 3.66968 v 3.40105 h -10.52482 v -3.40105 h 3.66965 V 95.921554 Z m 23.03192,22.132046 h -3.01984 l 8.89386,-27.275528 h 3.03259 z m 14.86981,-22.232572 8.58807,9.499512 -8.58807,9.51629 -1.97499,-2.64713 6.30725,-6.83563 -6.30725,-6.885904 z"
         id="text1"
         style="font-weight:bold;font-size:74.6667px;line-height:1.25;font-family:Consolas;-inkscape-font-specification:'Consolas, Bold';text-align:center;letter-spacing:0px;word-spacing:0px;text-anchor:middle;white-space:pre;fill:#ffffff;stroke-width:0.400755"
         aria-label="&lt;TUI /&gt;"
         sodipodi:nodetypes="ccccccccccccccccsccssssssccsccssccssccsccccccccccccccccccccccccc" /><path
         id="rect3"
         style="stroke-width:1.049"
         d="m 79.263412,62.283257 h 6 v 6 h -6 z" /><path
         id="rect3-2"
         style="stroke-width:1.049"
         d="m 91.579735,62.305824 h 6 v 6 h -6 z" /><path
         id="rect3-7"
         style="stroke-width:1.049"
         d="m 103.89606,62.380844 h 6 v 6 h -6 z" /></g></g></svg>
